<?xml version="1.0" encoding="utf-8"?>
<!-- Generator: Adobe Illustrator 22.1.0, SVG Export Plug-In . SVG Version: 6.00 Build 0)  -->
<svg version="1.1" id="Layer_1" xmlns="http://www.w3.org/2000/svg" xmlns:xlink="http://www.w3.org/1999/xlink" x="0px" y="0px"
	 viewBox="0 0 256 256" style="enable-background:new 0 0 256 256;" xml:space="preserve">
<style type="text/css">
	.st0{fill:#D32F2F;}
	.st1{fill:#FAFAFA;}
</style>
<g id="layer1">
	<path id="path1545" class="st0" d="M196.5,208.6c-21.3,21.5-50.3,33.5-80.6,33.4c-62.9-0.1-114-51.1-114-114s51.1-114,114-114
		c30.3-0.1,59.2,12,80.6,33.4l2.9,2.9l-30.9,30.9l-2.9-2.9c-13.1-13.3-31.1-20.6-49.8-20.6c-38.8,0-70.4,31.6-70.4,70.3
		s31.6,70.4,70.4,70.4c18.7,0.1,36.6-7.4,49.8-20.6l2.9-2.9l30.9,30.9L196.5,208.6"/>
	<path id="path1547" class="st1" d="M143.6,128c0,15.3-12.4,27.7-27.7,27.7S88.2,143.3,88.2,128s12.4-27.7,27.7-27.7
		C131.3,100.2,143.6,112.7,143.6,128"/>
	<path id="path1549" class="st0" d="M254.1,128c0,15.3-12.4,27.7-27.7,27.7c-15.3,0-27.7-12.4-27.7-27.7s12.4-27.7,27.7-27.7l0,0
		C241.7,100.2,254.1,112.7,254.1,128"/>
</g>
</svg>
