<?xml version="1.0" encoding="UTF-8" standalone="no"?>
<svg
  xmlns="http://www.w3.org/2000/svg"
  width="548"
  height="371"
  id="svg2"
  version="1.1">
  <g
    id="layer1"
    transform="translate(-64.253831,-208.63691)">
    <path
      clip-rule="evenodd"
      d="m 557.9144,525.29749 -4.73251,4.73251 -50.24073,-50.24073 4.73252,-4.73251 c 21.63436,-21.59211 33.55016,-50.32524 33.55016,-80.91757 0,-30.55009 -11.9158,-59.32547 -33.55016,-80.91758 l -4.73252,-4.77477 45.50821,-45.46595 4.73252,-4.73252 4.73251,4.73252 c 35.07133,35.02906 54.33943,81.59364 54.33943,131.1583 0,49.56465 -19.31036,96.12923 -54.33943,131.1583"
      id="path1543"
      style="fill:#fafafa;fill-rule:evenodd"/>
    <path
      clip-rule="evenodd"
      d="m 380.90986,525.29749 c -35.02907,35.02906 -81.6359,54.33942 -131.1583,54.33942 -102.29841,0 -185.497729,-83.19932 -185.497729,-185.49772 0,-102.29841 83.199319,-185.49773 185.497729,-185.49773 49.5224,0 96.12923,19.31036 131.1583,54.33943 l 4.73251,4.73251 -50.24073,50.24073 -4.73251,-4.73252 c -21.59211,-21.63436 -50.36749,-33.55016 -80.91757,-33.55016 -63.12839,0 -114.46773,51.33935 -114.46773,114.46774 0,63.08612 51.33934,114.46773 114.46773,114.46773 30.55008,0 59.32546,-11.9158 80.91757,-33.55016 l 4.73251,-4.73252 50.24073,50.24073 -4.73251,4.73252"
      id="path1545"
      style="fill:#d32f2f;fill-rule:evenodd"/>
    <path
      clip-rule="evenodd"
      d="m 294.87948,394.13919 c 0,24.93021 -20.23996,45.12792 -45.12792,45.12792 -24.93022,0 -45.12792,-20.19771 -45.12792,-45.12792 0,-24.93022 20.1977,-45.12793 45.12792,-45.12793 24.88796,0 45.12792,20.19771 45.12792,45.12793"
      id="path1547"
      style="fill:#fafafa;fill-rule:evenodd"/>
    <path
      clip-rule="evenodd"
      d="m 474.54607,394.13919 c 0,24.93021 -20.19771,45.12792 -45.08567,45.12792 -24.93022,0 -45.12792,-20.19771 -45.12792,-45.12792 0,-24.93022 20.1977,-45.12793 45.12792,-45.12793 24.88796,0 45.08567,20.19771 45.08567,45.12793"
      id="path1549"
      style="fill:#d32f2f;fill-rule:evenodd"/>
  </g>
</svg>
